#!OML:ASF I:\Actors\actors\Patient Classification 2\Patient 1\Session 1\actor1.ASF
:FULLY-SPECIFIED
:DEGREES
97
root -0.610438 18.6963 5.61222 2.15622 -4.67956 -1.29474
lowerback -0.495465 1.05052 -0.429029
upperback -1.9537 1.40491 0.449207
thorax -1.74468 0.712747 0.685554
lowerneck -12.52 -2.26174 -2.22883
upperneck 32.7157 -3.95288 3.49073
head 13.157 -1.57302 1.16622
rclavicle -1.13804e-014 -1.19271e-015
rhumerus -50.4887 3.90375 -91.3825
rradius 48.723
rwrist 15.2864
rhand -9.3108 -39.4202
rfingers 7.12502
rthumb 16.6472 -68.7263
lclavicle -1.13804e-014 -1.19271e-015
lhumerus -42.6282 -15.0267 95.8712
lradius 52.0059
lwrist 3.74096
lhand -4.19461 -29.5195
lfingers 7.12502
lthumb 21.5671 -0.700351
rfemur 0 0 0
rtibia 0
rfoot 0 0
rtoes 0
lfemur -3.63488 -7.47413 -13.8991
ltibia 20.6342
lfoot -25.1935 18.4788
ltoes -53.8684
98
root -0.609457 18.6963 5.60694 2.12422 -4.57039 -1.33205
lowerback -0.456307 1.07232 -0.359696
upperback -1.89117 1.43401 0.434457
thorax -1.70081 0.72582 0.631281
lowerneck -12.4964 -2.3461 -2.45189
upperneck 32.849 -4.10527 3.73508
head 13.2272 -1.63445 1.28002
rclavicle -3.20509e-014 6.95746e-015
rhumerus -51.0234 4.7647 -92.0914
rradius 50.0523
rwrist 14.0242
rhand -10.248 -40.1895
rfingers 7.12502
rthumb 15.7448 -69.5691
lclavicle -3.20509e-014 6.95746e-015
lhumerus -42.2711 -15.9599 95.994
lradius 53.5687
lwrist 3.76282
lhand -4.07503 -29.3885
lfingers 7.12502
lthumb 21.6819 -0.582643
rfemur 0 0 0
rtibia 0
rfoot 0 0
rtoes 0
lfemur -3.65049 -7.56622 -13.8591
ltibia 20.6566
lfoot -25.1658 18.4918
ltoes -53.9289
99
root -0.608949 18.6961 5.60124 2.07105 -4.42634 -1.32536
lowerback -0.370292 1.08266 -0.331811
upperback -1.84339 1.44733 0.40086
thorax -1.69866 0.731651 0.579925
lowerneck -12.4402 -2.42567 -2.53685
upperneck 32.8865 -4.21953 3.78901
head 13.2397 -1.68825 1.29999
rclavicle 3.15881e-015 -1.14301e-014
rhumerus -51.5672 5.60228 -92.7168
rradius 51.5348
rwrist 13.3017
rhand -10.4587 -40.8016
rfingers 7.12502
rthumb 15.5419 -70.197
lclavicle 3.15881e-015 -1.14301e-014
lhumerus -41.8782 -16.9114 96.0534
lradius 55.1219
lwrist 3.53854
lhand -3.71568 -29.2425
lfingers 7.12502
lthumb 22.027 -0.476879
rfemur 0 0 0
rtibia 0
rfoot 0 0
rtoes 0
lfemur -3.673 -7.59103 -13.8552
ltibia 20.6993
lfoot -25.0912 18.4431
ltoes -54.0783
100
root -0.608243 18.6951 5.59495 1.96911 -4.26485 -1.31628
lowerback -0.230209 1.07592 -0.313796
upperback -1.77978 1.43763 0.359903
thorax -1.71036 0.726063 0.5259
lowerneck -12.392 -2.50128 -2.52265
upperneck 32.9199 -4.31252 3.71846
head 13.2454 -1.73676 1.25667
rclavicle -1.80832e-014 5.46658e-015
rhumerus -52.0733 6.49297 -93.3981
rradius 53.0968
rwrist 12.53
rhand -10.5997 -41.4805
rfingers 7.12502
rthumb 15.4061 -70.8865
lclavicle -1.80832e-014 5.46658e-015
lhumerus -41.4818 -17.9308 96.048
lradius 56.7528
lwrist 3.31617
lhand -3.16618 -29.1233
lfingers 7.12502
lthumb 22.5545 -0.420737
rfemur 0 0 0
rtibia 0
rfoot 0 0
rtoes 0
lfemur -3.65493 -7.5465 -13.8465
ltibia 20.7512
lfoot -24.9901 18.2844
ltoes -54.179
101
root -0.607455 18.6945 5.58812 1.86887 -4.11388 -1.34944
lowerback -0.0723192 1.05316 -0.274933
upperback -1.71595 1.40719 0.348992
thorax -1.7319 0.710073 0.49094
lowerneck -12.3893 -2.54664 -2.58494
upperneck 33.0563 -4.38285 3.75958
head 13.3096 -1.76871 1.27463
rclavicle 7.29602e-015 -3.8763e-015
rhumerus -52.5311 7.43914 -94.067
rradius 54.7051
rwrist 11.7938
rhand -10.6376 -42.1964
rfingers 7.12502
rthumb 15.3696 -71.6052
lclavicle 7.29602e-015 -3.8763e-015
lhumerus -41.0771 -18.9205 96.0089
lradius 58.4057
lwrist 3.05876
lhand -2.71783 -29.0722
lfingers 7.12502
lthumb 22.9847 -0.422587
rfemur 0 0 0
rtibia 0
rfoot 0 0
rtoes 0
lfemur -3.62968 -7.48677 -13.7923
ltibia 20.8015
lfoot -24.8659 18.1229
ltoes -54.1999
102
root -0.607207 18.6942 5.58103 1.80625 -3.99248 -1.37021
lowerback 0.0445904 1.02304 -0.273996
upperback -1.66729 1.36692 0.353809
thorax -1.74725 0.689898 0.494203
lowerneck -12.3795 -2.56056 -2.61487
upperneck 33.2305 -4.39008 3.72046
head 13.3829 -1.7793 1.26527
rclavicle -1.61637e-014 -1.98785e-016
rhumerus -52.9184 8.45498 -94.7097
rradius 56.3191
rwrist 11.1693
rhand -10.6279 -42.6861
rfingers 7.12502
rthumb 15.379 -72.0941
lclavicle -1.61637e-014 -1.98785e-016
lhumerus -40.6041 -19.8295 95.9295
lradius 59.9727
lwrist 2.85439
lhand -2.25665 -29.1771
lfingers 7.12502
lthumb 23.4272 -0.583235
rfemur 0 0 0
rtibia 0
rfoot 0 0
rtoes 0
lfemur -3.64243 -7.44269 -13.7551
ltibia 20.851
lfoot -24.7743 18.011
ltoes -54.2094
103
root -0.60821 18.694 5.5737 1.74952 -3.89434 -1.37574
lowerback 0.136068 1.00878 -0.290407
upperback -1.60769 1.34752 0.351409
thorax -1.73757 0.680287 0.50015
lowerneck -12.3936 -2.58959 -2.63169
upperneck 33.4076 -4.40223 3.62239
head 13.4611 -1.79779 1.2292
rclavicle -8.61607e-015 1.78906e-015
rhumerus -53.2458 9.41456 -95.319
rradius 58.049
rwrist 10.5864
rhand -10.6234 -43.3253
rfingers 7.12502
rthumb 15.3833 -72.733
lclavicle -8.61607e-015 1.78906e-015
lhumerus -39.9584 -20.7052 95.7871
lradius 61.3532
lwrist 2.7152
lhand -1.8445 -29.4832
lfingers 7.12502
lthumb 23.8225 -0.940308
rfemur 0 0 0
rtibia 0
rfoot 0 0
rtoes 0
lfemur -3.66111 -7.37785 -13.7286
ltibia 20.8981
lfoot -24.6719 17.8836
ltoes -54.2225
104
root -0.609759 18.6948 5.56555 1.70146 -3.77547 -1.36545
lowerback 0.243597 0.995892 -0.3128
upperback -1.54967 1.32968 0.339039
thorax -1.73844 0.671475 0.498918
lowerneck -12.4153 -2.60514 -2.75947
upperneck 33.5417 -4.43808 3.74615
head 13.5334 -1.81159 1.29647
rclavicle 1.0343e-015 -4.96962e-016
rhumerus -53.4987 10.2125 -95.7526
rradius 59.8801
rwrist 10.2596
rhand -10.1645 -44.1706
rfingers 7.12502
rthumb 15.8252 -73.5438
lclavicle 1.0343e-015 -4.96962e-016
lhumerus -39.1713 -21.5901 95.6084
lradius 62.5725
lwrist 2.62573
lhand -1.75437 -29.7922
lfingers 7.12502
lthumb 23.909 -1.26059
rfemur 0 0 0
rtibia 0
rfoot 0 0
rtoes 0
lfemur -3.69444 -7.27023 -13.7062
ltibia 20.9389
lfoot -24.5248 17.7326
ltoes -54.3609
105
root -0.610692 18.6965 5.55667 1.68991 -3.64798 -1.32725
lowerback 0.322195 0.969508 -0.364712
upperback -1.51599 1.29324 0.309434
thorax -1.74807 0.653716 0.497228
lowerneck -12.3856 -2.57601 -2.81607
upperneck 33.6251 -4.42641 3.87179
head 13.5682 -1.79659 1.35954
rclavicle 3.20789e-014 -7.05686e-015
rhumerus -53.6342 10.893 -96.0537
rradius 61.6568
rwrist 10.2658
rhand -12.1503 -44.5396
rfingers 7.12502
rthumb 13.9121 -74.0542
lclavicle 3.20789e-014 -7.05686e-015
lhumerus -38.3526 -22.5319 95.3751
lradius 63.7212
lwrist 2.68948
lhand -1.82594 -30.024
lfingers 7.12502
lthumb 23.8403 -1.48342
rfemur 0 0 0
rtibia 0
rfoot 0 0
rtoes 0
lfemur -3.77583 -7.10873 -13.7057
ltibia 20.9769
lfoot -24.3147 17.5726
ltoes -54.5723
106
root -0.611479 18.6973 5.54746 1.66686 -3.51128 -1.33359
lowerback 0.400792 0.946596 -0.360556
upperback -1.47657 1.262 0.274603
thorax -1.75051 0.637691 0.458826
lowerneck -12.3788 -2.57536 -2.72453
upperneck 33.7519 -4.42526 3.7835
head 13.6173 -1.79495 1.31002
rclavicle 4.35152e-015 -5.96354e-015
rhumerus -53.6922 11.5841 -96.4351
rradius 63.4389
rwrist 9.78755
rhand -12.2187 -44.8598
rfingers 7.12502
rthumb 13.8462 -74.3789
lclavicle 4.35152e-015 -5.96354e-015
lhumerus -37.4842 -23.5226 95.0704
lradius 64.7915
lwrist 2.89199
lhand -1.91212 -30.2748
lfingers 7.12502
lthumb 23.7577 -1.72348
rfemur 0 0 0
rtibia 0
rfoot 0 0
rtoes 0
lfemur -3.84884 -6.91063 -13.6505
ltibia 21.01
lfoot -24.0807 17.3544
ltoes -54.6748
107
root -0.612915 18.6975 5.53881 1.60529 -3.3518 -1.36188
lowerback 0.520037 0.919228 -0.341454
upperback -1.42771 1.2251 0.25129
thorax -1.76601 0.618724 0.423393
lowerneck -12.3564 -2.61 -2.65274
upperneck 33.8844 -4.46124 3.66502
head 13.6671 -1.81625 1.2463
rclavicle 4.99136e-015 2.98177e-015
rhumerus -53.7365 12.4013 -96.8836
rradius 65.336
rwrist 8.83053
rhand -11.2988 -45.3843
rfingers 7.12502
rthumb 14.7326 -74.8408
lclavicle 4.99136e-015 2.98177e-015
lhumerus -36.5424 -24.411 94.7074
lradius 65.7608
lwrist 3.01503
lhand -2.01942 -30.4263
lfingers 7.12502
lthumb 23.6548 -1.86159
rfemur 0 0 0
rtibia 0
rfoot 0 0
rtoes 0
lfemur -3.87618 -6.79692 -13.5757
ltibia 21.0406
lfoot -23.9552 17.1224
ltoes -54.6995
108
root -0.614702 18.6979 5.53119 1.53745 -3.22446 -1.33824
lowerback 0.617275 0.89104 -0.408591
upperback -1.37315 1.18602 0.237704
thorax -1.76533 0.599907 0.446776
lowerneck -12.2941 -2.61686 -2.64392
upperneck 33.9815 -4.45996 3.6113
head 13.6943 -1.82162 1.22525
rclavicle -1.18028e-014 4.96962e-015
rhumerus -53.7109 13.2982 -97.2244
rradius 67.2576
rwrist 8.2363
rhand -10.6306 -46.0353
rfingers 7.12502
rthumb 15.3763 -75.4436
lclavicle -1.18028e-014 4.96962e-015
lhumerus -35.5174 -25.2037 94.3029
lradius 66.6153
lwrist 3.16648
lhand -2.0701 -30.477
lfingers 7.12502
lthumb 23.6062 -1.90608
rfemur 0 0 0
rtibia 0
rfoot 0 0
rtoes 0
lfemur -3.88229 -6.74545 -13.5701
ltibia 21.0747
lfoot -23.8872 16.9608
ltoes -54.7462
109
root -0.615559 18.6986 5.52152 1.51594 -3.16119 -1.34585
lowerback 0.655922 0.876253 -0.455369
upperback -1.31033 1.16554 0.242907
thorax -1.72343 0.590115 0.478723
lowerneck -12.2699 -2.58219 -2.65604
upperneck 34.0793 -4.41426 3.62611
head 13.7311 -1.80061 1.24169
rclavicle 4.78326e-015 1.98785e-016
rhumerus -53.5741 14.2537 -97.4581
rradius 69.171
rwrist 7.94601
rhand -10.5633 -46.6094
rfingers 7.12502
rthumb 15.4411 -76.0126
lclavicle 4.78326e-015 1.98785e-016
lhumerus -34.4165 -26.0058 93.8524
lradius 67.3789
lwrist 3.49076
lhand -2.03105 -30.609
lfingers 7.12502
lthumb 23.6436 -2.0429
rfemur 0 0 0
rtibia 0
rfoot 0 0
rtoes 0
lfemur -3.92287 -6.73303 -13.547
ltibia 21.103
lfoot -23.8432 16.9168
ltoes -54.8077
110
root -0.614381 18.7003 5.50919 1.5517 -3.16721 -1.39379
lowerback 0.679945 0.876203 -0.435688
upperback -1.26317 1.16573 0.24511
thorax -1.6882 0.589777 0.470025
lowerneck -12.2786 -2.53438 -2.61354
upperneck 34.1781 -4.36207 3.63587
head 13.7738 -1.77001 1.24717
rclavicle 1.09953e-014 -3.97569e-016
rhumerus -53.3394 15.3171 -97.675
rradius 71.0983
rwrist 7.75589
rhand -10.5638 -47.1524
rfingers 7.12502
rthumb 15.4407 -76.5556
lclavicle 1.09953e-014 -3.97569e-016
lhumerus -33.3038 -26.771 93.3367
lradius 68.0856
lwrist 3.6665
lhand -1.98163 -30.7203
lfingers 7.12502
lthumb 23.691 -2.16026
rfemur 0 0 0
rtibia 0
rfoot 0 0
rtoes 0
lfemur -4.01093 -6.81819 -13.5008
ltibia 21.1241
lfoot -23.8551 16.9987
ltoes -54.7761
111
root -0.61269 18.7019 5.49675 1.54952 -3.17964 -1.39873
lowerback 0.764013 0.8857 -0.438098
upperback -1.20828 1.17758 0.213251
thorax -1.67862 0.595359 0.437627
lowerneck -12.2888 -2.51814 -2.49567
upperneck 34.2275 -4.35618 3.59053
head 13.7933 -1.7576 1.20957
rclavicle 1.70629e-014 4.96962e-015
rhumerus -52.9425 16.3074 -97.7512
rradius 72.9012
rwrist 7.96596
rhand -10.3351 -47.3387
rfingers 7.12502
rthumb 15.6609 -76.7249
lclavicle 1.70629e-014 4.96962e-015
lhumerus -32.1261 -27.5348 92.7662
lradius 68.6821
lwrist 3.58491
lhand -1.94909 -30.7764
lfingers 7.12502
lthumb 23.7222 -2.2204
rfemur 0 0 0
rtibia 0
rfoot 0 0
rtoes 0
lfemur -4.0588 -6.88579 -13.5033
ltibia 21.1452
lfoot -23.8268 17.0551
ltoes -54.6915
112
root -0.612268 18.7026 5.4833 1.4964 -3.16039 -1.41027
lowerback 0.890118 0.893 -0.462761
upperback -1.12491 1.18612 0.190618
thorax -1.66405 0.599551 0.426765
lowerneck -12.2741 -2.52331 -2.42051
upperneck 34.2064 -4.38827 3.60486
head 13.7805 -1.76023 1.19713
rclavicle 2.09236e-014 -8.15017e-015
rhumerus -52.2729 17.1681 -97.5858
rradius 74.4753
rwrist 8.42897
rhand -9.98316 -46.745
rfingers 7.12502
rthumb 15.9999 -76.1042
lclavicle 2.09236e-014 -8.15017e-015
lhumerus -30.8209 -28.368 92.1426
lradius 69.143
lwrist 3.45296
lhand -1.80296 -30.7737
lfingers 7.12502
lthumb 23.8624 -2.23602
rfemur 0 0 0
rtibia 0
rfoot 0 0
rtoes 0
lfemur -4.06106 -6.8582 -13.4836
ltibia 21.1603
lfoot -23.743 17.0179
ltoes -54.6716
